<?xml version="1.0" encoding="UTF-8" standalone="no"?><!DOCTYPE svg PUBLIC "-//W3C//DTD SVG 1.1//EN" "http://www.w3.org/Graphics/SVG/1.1/DTD/svg11.dtd"><!-- Generated by graphviz version 2.40.1 (20161225.0304)
 --><!-- Title: G Pages: 1 --><svg xmlns="http://www.w3.org/2000/svg" xmlns:xlink="http://www.w3.org/1999/xlink" width="116pt" height="188pt" viewBox="0.00 0.00 116.00 188.00">
<g id="graph0" class="graph" transform="scale(1 1) rotate(0) translate(4 184)">
<title>G</title>
<polygon fill="#ffffff" stroke="transparent" points="-4,4 -4,-184 112,-184 112,4 -4,4"/>
<!-- p1 -->
<g id="node1" class="node">
<title>p1</title>
<polygon fill="none" stroke="#000000" points="36,-180 0,-180 0,-144 36,-144 36,-180"/>
<text text-anchor="middle" x="18" y="-157.8" font-family="Times,serif" font-size="14.00" fill="#000000">1</text>
</g>
<!-- p1&#45;&gt;p1 -->
<g id="edge1" class="edge">
<title>p1-&gt;p1</title>
<path fill="none" stroke="#000000" d="M36.1527,-175.0254C45.5391,-177.0293 54,-172.6875 54,-162 54,-155.4873 50.8581,-151.331 46.2796,-149.5311"/>
<polygon fill="#000000" stroke="#000000" points="46.3297,-146.0287 36.1527,-148.9746 45.9456,-153.0181 46.3297,-146.0287"/>
</g>
<!-- p2 -->
<g id="node2" class="node">
<title>p2</title>
<polygon fill="none" stroke="#000000" points="108,-180 72,-180 72,-144 108,-144 108,-180"/>
<text text-anchor="middle" x="90" y="-157.8" font-family="Times,serif" font-size="14.00" fill="#000000">2</text>
</g>
<!-- p3 -->
<g id="node3" class="node">
<title>p3</title>
<polygon fill="none" stroke="#000000" points="85,-108 49,-108 49,-72 85,-72 85,-108"/>
<text text-anchor="middle" x="67" y="-85.8" font-family="Times,serif" font-size="14.00" fill="#000000">3</text>
</g>
<!-- p2&#45;&gt;p3 -->
<g id="edge2" class="edge">
<title>p2-&gt;p3</title>
<path fill="none" stroke="#000000" d="M84.1961,-143.8314C81.7092,-136.0463 78.7469,-126.7729 75.9875,-118.1347"/>
<polygon fill="#000000" stroke="#000000" points="79.2591,-116.874 72.882,-108.4133 72.591,-119.0041 79.2591,-116.874"/>
</g>
<!-- p4 -->
<g id="node4" class="node">
<title>p4</title>
<polygon fill="none" stroke="#000000" points="108,-36 72,-36 72,0 108,0 108,-36"/>
<text text-anchor="middle" x="90" y="-13.8" font-family="Times,serif" font-size="14.00" fill="#000000">4</text>
</g>
<!-- p3&#45;&gt;p4 -->
<g id="edge3" class="edge">
<title>p3-&gt;p4</title>
<path fill="none" stroke="#000000" d="M72.8039,-71.8314C75.2908,-64.0463 78.2531,-54.7729 81.0125,-46.1347"/>
<polygon fill="#000000" stroke="#000000" points="84.409,-47.0041 84.118,-36.4133 77.7409,-44.874 84.409,-47.0041"/>
</g>
<!-- p4&#45;&gt;p2 -->
<g id="edge4" class="edge">
<title>p4-&gt;p2</title>
<path fill="none" stroke="#000000" d="M91.7082,-36.4756C92.5864,-46.8969 93.5622,-60.1632 94,-72 94.5914,-87.9891 94.5914,-92.0109 94,-108 93.6956,-116.2303 93.1311,-125.1517 92.5201,-133.3273"/>
<polygon fill="#000000" stroke="#000000" points="89.013,-133.2781 91.7082,-143.5244 95.991,-133.8338 89.013,-133.2781"/>
</g>
</g>
</svg>